<svg version="1.1" xmlns="http://www.w3.org/2000/svg" xmlns:xlink="http://www.w3.org/1999/xlink" x="0px" y="0px"
	 viewBox="0 0 374 374" enable-background="new 0 0 374 374" xml:space="preserve">
<g id="bierfass">
	<g id="bg-bierfass">
		<path fill="#644133" d="M188.6,297.5l67.6-1.8l1.6,13.2l34.8,1.1c0,0,5.5-6.3,10-19.8l30.1-10l14.8-152.4c2.6-21.6,0-34.3,0-34.3
			L309,83.9l-2.6-19l-46.4-1.6v16.4c0,0-39.3-6.3-71.3-6.3h0.8c-32,0-71.3,6.3-71.3,6.3V63.3l-46.4,1.6l-2.6,19l-38.5,9.5
			c0,0-2.6,12.7,0,34.3l14.8,152.4l30.1,10c4.5,13.5,10,19.8,10,19.8l34.8-1.1l1.6-13.2l67.6,1.8H188.6z"/>
	</g>
	<g id="shading">
		<path fill="#885845" d="M189.4,297.5l61.1-1.7l7.3,14.1l32.8,2.4l16.3-19.3l23.8-7.9l4-16.6l-28.8,8.2l-6,19h-42.1l1.3-11.9
			c0,0-54.5,2.1-69.7,0.3c-15.2,1.8-69.7-0.3-69.7-0.3l1.3,11.9H78.9l-6-19l-28.8-8.2l4,16.6l23.8,7.9l16.3,19.3l32.8-2.4l7.3-14.1
			L189.4,297.5z"/>
		<path fill="#885845" d="M189.4,73.3c13.5-0.4,68.4,4,68.4,4l3-14l46.1,2.5l4.8,16.6l4.2,4.6l32.4,6.4l-0.7,12.5l-37.4-5.6
			l-1.8-20.6l-46.7-2.4v15.6c0,0-38.7-5.8-72.3-6c-33.6,0.2-72.3,6-72.3,6V77.3l-46.7,2.4l-1.8,20.6l-37.4,5.6l-0.7-12.5L62.9,87
			l4.2-4.6l4.8-16.6l46.1-2.5l3,14C121,77.3,175.9,73,189.4,73.3z"/>
		<path fill="#885845" d="M256.6,270.4c0,0-2-106.4,0-140s5.1-37.4,5.1-37.4L256.6,270.4z"/>
		<polygon fill="#885845" points="66.3,111.3 60.8,154.4 67.9,155.2 		"/>
		<polygon fill="#885845" points="304.1,155.6 306.5,101 310.4,156 		"/>
		<path fill="#885845" d="M242.2,158.5c0,0-39,4.5-42.2,4.5c-3.2,0-41.1-1.3-61.7-6.1c30.1,1.6,30.1,1.6,30.1,1.6H242.2z"/>
		<path fill="#885845" d="M117.4,237.9c0,0,23.1,6.1,28.5,5.9c-29.3,0.2-29.3,0.2-29.3,0.2L117.4,237.9z"/>
		<path fill="#885845" d="M257.2,218.8c0,0-9.9-1.8-20.6-0.5c-10.7,1.3-31.1,0.6-31.1,0.6l25.8-3.1l18.1-1.5l7.7,0.3V218.8z"/>
		<polygon fill="#885845" points="118.2,148.9 159.2,156.3 116.6,154 		"/>
		<path fill="#885845" d="M89.5,156.9c0,0-5.1-42.9-4.4-48.6c-0.8,35.3-0.2,47.9-0.2,47.9L89.5,156.9z"/>
	</g>
	<g id="shading3">
		<path fill="#885845" d="M118.2,195.5c0,0,8.2,5.5,37.9,8.3s-9.7,11.1-24.9,10.6c-15.2-0.6-16.1,8.2-16.1,8.2L118.2,195.5z"/>
		<path fill="#885845" d="M262.9,133.3c0,0,20.8,8.1,29,6.9c-8.6,7.9-29,12.5-29,12.5V133.3z"/>
		<polygon fill="#CF8769" points="306.8,281.6 333,276.7 334.5,282.7 305.7,289.1 		"/>
		<path fill="#885845" d="M258.7,249.2c0,0-14.4,5.9-23.6,6s-13.2,2.5-13.2,2.5s10.6,2.9,16.5,2c5.9-0.9,20.3,5.2,20.3,5.2V249.2z"
			/>
		<polygon fill="#885845" points="105.3,75.5 113,172.4 115.1,99.1 115.7,75.5 		"/>
		<polygon fill="#885845" points="339.3,102.5 341.9,149.8 345.3,149.8 347.5,127.7 347.5,102.5 		"/>
	</g>
	<g id="shading2">
		<path fill="#CF8769" d="M31.8,100l36.1-7l4-20.2h43.5l1.5,15.4c0,0,60.7-14.2,144,0.5c1.8-16.4,1.8-16.4,1.8-16.4l44,0.5l3.6,20.2
			l38.2,8.1l-1.7-9.5l-35.3-9.1l-4.8-16.6l-46.1-2.5l-3.5,15.9c0,0-60.7-10.4-136.2,0.4c-4-9-9.3-16.6-9.3-16.6l-39.8,2.7L64.4,87
			l-33.9,6.4L31.8,100z"/>
		<path fill="#CF8769" d="M45.7,274.9l28.1,7.6l12,19.5l32.5-1l4.5-13.5c0,0,56.1,3.8,136.4,0.9c1.5,13.2,2.6,13.5,2.6,13.5h36
			l-3.9,9.3l-32.1-1.1l-10.4-12.7l-127-1.1l-4.2,12.5l-34.5,2.4l-13.8-21.7l-26.7-9.4L45.7,274.9z"/>
		<path fill="#CF8769" d="M161.9,261.4c0,0-1.4,28.5,27.5,28.5c26.7,0,27.5-24.8,27.5-30.2C203.8,260.6,161.9,261.4,161.9,261.4z"/>
	</g>
	<g id="kreis">
		<circle fill="#885845" cx="189.4" cy="261.6" r="27.5"/>
		<circle fill="#524038" cx="189.4" cy="261.6" r="23.5"/>
		<g id="shading0">
			<path fill="#2E241F" d="M168,259.9c0,0,2.1-17.6,21.4-17.6s21.4,17.6,21.4,17.6l-1.3-10.5L199,239.2l-13.6-0.7l-12.4,6.3
				l-5.8,10.4L168,259.9z"/>
		</g>
		<path fill="#302C17" d="M189.4,287.6c-14.3,0-26-11.7-26-26s11.7-26,26-26s26,11.7,26,26S203.7,287.6,189.4,287.6z M189.4,240.6
			c-11.6,0-21,9.4-21,21s9.4,21,21,21c11.6,0,21-9.4,21-21S200.9,240.6,189.4,240.6z"/>
	</g>
	<g id="outlines">
		<path fill="#302C17" d="M117.5,296.2c-2.6-18.3-8.4-93-4-216.6l7,0.2c-4.4,123.1,1.4,197.2,3.9,215.4L117.5,296.2z"/>
		<path fill="#302C17" d="M71.9,291c-10.5-42.2-6-197.5-5.8-204.1l7,0.2c0,1.6-4.7,161,5.6,202.2L71.9,291z"/>
		<path fill="#302C17" d="M261.5,296l-7-0.6c0.1-1,7.8-98,3.7-215.6l7-0.2C269.4,197.6,261.6,295,261.5,296z"/>
		<path fill="#302C17" d="M306.8,291l-6.8-1.7c10.3-41.2,5.6-200.6,5.6-202.2l7-0.2C312.8,93.4,317.4,248.8,306.8,291z"/>
		<path fill="#302C17" d="M128.3,113.4c4-0.6,8-0.9,12-1c4-0.1,8,0,12,0.2c4,0.2,7.9,0.5,11.9,1c4,0.5,7.9,1.1,11.9,2.2
			c-4,0.6-8,0.9-12,1c-4,0.1-8,0-12-0.2c-4-0.2-7.9-0.5-11.9-1C136.2,115.1,132.2,114.5,128.3,113.4z"/>
		<path fill="#302C17" d="M115.1,152.5c3.1-0.1,6.2,0,9.3,0.1l9.2,0.3c3.1,0.1,6.2,0.3,9.2,0.5c3.1,0.2,6.2,0.5,9.2,0.9
			c3.1,0.4,6.1,0.9,9.2,1.5l2.3,0.5l2.2,0.4c0.7,0.1,1.5,0.2,2.2,0.3l2.2,0.2c6,0.5,12,0.4,18.1,0.1c6.1-0.3,12.2-0.7,18.3-1.2
			c6.1-0.5,12.3-1,18.5-1.1c6.2-0.1,12.4,0,18.6,0.1c3.1,0,6.2,0.2,9.3,0.5c1.5,0.1,3.1,0.3,4.6,0.5c0.8,0.1,1.5,0.1,2.3,0.5
			c0.4,0.2,0.7,0.4,1.1,0.7c0.4,0.3,0.7,0.7,1.1,1.3l0,0.5c-1.6,0.2-3.1,0.2-4.6,0.2l-4.6,0.1l-9.2,0.3c-6.1,0.3-12.2,0.2-18.3,0.4
			c-6.1,0.1-12.1,0.3-18.3,0.6c-3.1,0.2-6.1,0.2-9.2,0.3c-3.1,0.1-6.2,0-9.3,0l-9.3-0.3l-2.3-0.1c-0.8-0.1-1.5-0.1-2.3-0.1
			c-0.8,0-1.5,0-2.3-0.1l-2.3,0l-2.3-0.1l-1.2,0l-1.2-0.1l-2.3-0.2l-2.3-0.3c-3-0.4-6.1-0.6-9.1-0.9c-6.1-0.6-12.2-1.1-18.3-1.5
			c-3.1-0.2-6.1-0.5-9.1-0.9c-1.5-0.2-3-0.4-4.6-0.6c-0.8-0.1-1.5-0.3-2.2-0.8c-0.7-0.4-1.5-1-2.1-1.9L115.1,152.5z"/>
		<path fill="#302C17" d="M159.2,189.6c3.9-0.9,7.9-1.3,11.8-1.7c3.9-0.3,7.9-0.5,11.8-0.6c3.9,0,7.9,0,11.8,0.3
			c3.9,0.3,7.9,0.6,11.8,1.4c-3.9,0.9-7.9,1.3-11.8,1.7c-3.9,0.3-7.9,0.5-11.8,0.6c-3.9,0-7.9-0.1-11.8-0.3
			C167,190.8,163.1,190.4,159.2,189.6z"/>
		<path fill="#302C17" d="M261.1,121.7c-6.1,0.1-12.2,0.1-18.4-0.1c-3.1-0.1-6.1-0.2-9.2-0.5c-3.1-0.2-6.1-0.5-9.2-1.2
			c-0.4-0.1-0.6-0.5-0.6-0.9c0.1-0.4,0.4-0.6,0.8-0.6l0,0c3,0.3,6,0.3,9,0.3c3-0.1,6-0.2,9-0.4c6-0.4,12.1-1,18.1-1.7l0,0
			c1.4-0.2,2.6,0.8,2.8,2.2s-0.8,2.6-2.2,2.8C261.3,121.7,261.2,121.7,261.1,121.7z"/>
		<path fill="#302C17" d="M83.2,164.3c-0.4-5.2-0.7-10.3-0.9-15.5c-0.2-5.2-0.2-10.3-0.1-15.5c0.1-5.2,0.4-10.3,0.8-15.4
			c0.4-5.1,1-10.3,1.8-15.3c0.1-0.5,0.5-0.8,1-0.7c0.4,0.1,0.7,0.5,0.7,0.9l0,0c-0.5,5.1-0.9,10.2-1,15.3
			c-0.1,5.1-0.1,10.2,0.1,15.3c0.2,5.1,0.5,10.2,0.9,15.3c0.4,5.1,1,10.2,1.7,15.1l0,0c0.2,1.4-0.8,2.6-2.1,2.8
			c-1.4,0.2-2.6-0.8-2.8-2.1C83.2,164.4,83.2,164.3,83.2,164.3z"/>
		<path fill="#302C17" d="M281.3,295.7c-0.6-3.2-0.8-6.4-1-9.6c-0.1-3.2-0.1-6.3,0-9.5c0.1-3.2,0.3-6.3,0.6-9.4
			c0.3-3.1,0.7-6.3,1.3-9.5c1.1,3.1,1.6,6.3,1.9,9.5c0.3,3.2,0.4,6.4,0.2,9.6c-0.1,3.2-0.4,6.4-0.8,9.5
			C282.9,289.4,282.3,292.6,281.3,295.7z"/>
		<path fill="#302C17" d="M117.4,240.6c2.9,0.5,6,0.9,9,1.3c3,0.3,6,0.6,9.1,0.8c6.1,0.4,12.2,0.3,18.2-0.3l0,0
			c0.4,0,0.8,0.2,0.8,0.6c0,0.4-0.2,0.7-0.6,0.8c-6.1,1.3-12.3,1.9-18.5,2.1c-3.1,0.1-6.2,0.1-9.3,0.1c-3.1-0.1-6.2-0.2-9.4-0.4
			c-1.4-0.1-2.4-1.3-2.3-2.7s1.3-2.4,2.7-2.3C117.2,240.5,117.2,240.6,117.4,240.6L117.4,240.6z"/>
		<path fill="#302C17" d="M290.6,65.4c0.6,4.6,1.1,9.1,1.4,13.7c0.4,4.6,0.6,9.1,0.7,13.7c0.1,4.6,0.1,9.1-0.2,13.7
			c-0.3,4.6-0.7,9.1-1.5,13.6c0.4-4.5,0.4-9.1,0.3-13.6c-0.2-4.5-0.6-9-1.1-13.5c-0.5-4.5-1.2-9-1.9-13.4c-0.8-4.4-1.6-8.9-2.6-13.2
			L290.6,65.4z"/>
		<path fill="#302C17" d="M260.2,217c-5.7-0.7-11.5-0.9-17.3-0.7c-2.9,0.1-5.8,0.3-8.6,0.7c-2.9,0.4-5.5,1-8.6,1.6
			c-6,0.9-12,1-17.9,0.8c-5.9-0.3-11.8-0.9-17.7-1.8c-0.6-0.1-1-0.6-0.9-1.2c0.1-0.6,0.6-1,1.2-0.9l0,0c5.8,0.8,11.6,1.2,17.4,1.3
			c5.8,0.1,11.7-0.1,17.3-1.2c2.7-0.6,5.7-1.4,8.7-1.9c3-0.5,5.9-0.8,8.9-1c6-0.4,11.9-0.3,18,0.2c1.1,0.1,1.9,1.1,1.8,2.2
			c-0.1,1.1-1.1,1.9-2.2,1.8C260.3,217,260.3,217,260.2,217L260.2,217z"/>
	</g>
	<g id="main-outline">
		<path fill="none" stroke="#302C17" stroke-width="9" stroke-miterlimit="10" d="M188.6,297.5l67.6-1.8l1.6,13.2l34.8,1.1
			c0,0,5.5-6.3,10-19.8l30.1-10l14.8-152.4c2.6-21.6,0-34.3,0-34.3L309,83.9l-2.6-19l-46.4-1.6v16.4c0,0-39.3-6.3-71.3-6.3h0.8
			c-32,0-71.3,6.3-71.3,6.3V63.3l-46.4,1.6l-2.6,19l-38.5,9.5c0,0-2.6,12.7,0,34.3l14.8,152.4l30.1,10c4.5,13.5,10,19.8,10,19.8
			l34.8-1.1l1.6-13.2l67.6,1.8H188.6z"/>
	</g>
</g>
<g id="helpers" display="none">
</g>
</svg>
